<svg width="145" height="145" viewBox="0 0 145 145" fill="none" xmlns="http://www.w3.org/2000/svg">
<path d="M54.3747 60.4163L77.7994 77.9849C78.2179 78.2988 78.8076 78.2371 79.152 77.8434L120.833 30.208" stroke="#9C0A35" stroke-width="7" stroke-linecap="round"/>
<path d="M126.875 72.5C126.875 83.8613 123.316 94.9372 116.699 104.172C110.081 113.407 100.737 120.337 89.9783 123.989C79.2199 127.641 67.5879 127.832 56.7158 124.534C45.8437 121.236 36.2777 114.615 29.3614 105.601C22.4451 96.5879 18.5258 85.6343 18.1541 74.2791C17.7824 62.9239 20.9768 51.7374 27.2888 42.2909C33.6008 32.8443 42.7133 25.6121 53.3464 21.6101C63.9795 17.6081 75.5991 17.0373 86.5733 19.9778" stroke="#9C0A35" stroke-width="7" stroke-linecap="round"/>
</svg>
