<svg width="44" height="37" viewBox="0 0 44 37" fill="none" xmlns="http://www.w3.org/2000/svg">
<path d="M43.3994 2.77316V26.4144C43.3994 27.9396 42.1515 29.1875 40.6263 29.1875H15.4598C15.4598 25.2358 12.756 21.908 9.08156 21.0067L18.9263 9.56741L18.9956 9.63674C19.3423 10.0527 20.9368 11.9246 26.4138 18.3029C26.4138 18.3029 26.4138 18.3029 26.4138 18.3722C26.0672 18.7882 24.6806 20.3827 20.0356 25.7904H21.8381C21.8381 25.7904 32.2375 13.6578 32.3068 13.5192L39.725 22.1853V3.3278H7.97229V20.7987C7.69498 20.7987 7.34833 20.7294 7.07101 20.7294C6.10041 20.7294 5.19913 20.868 4.29785 21.2147V2.77316C4.29785 1.24792 5.54577 0 7.07101 0H40.6263C42.1515 0 43.3994 1.24792 43.3994 2.77316Z" fill="#9C0B35"/>
<path d="M27.3151 13.5873C28.9616 13.5873 30.2963 12.2526 30.2963 10.6062C30.2963 8.95971 28.9616 7.625 27.3151 7.625C25.6687 7.625 24.334 8.95971 24.334 10.6062C24.334 12.2526 25.6687 13.5873 27.3151 13.5873Z" fill="#9C0B35"/>
<path d="M7.07156 22.1172C6.10096 22.1172 5.13035 22.3252 4.2984 22.6718C1.80256 23.7118 0 26.2076 0 29.1194C0 33.0019 3.11981 36.1217 7.07156 36.1217C10.954 36.1217 14.0738 33.0019 14.0738 29.1194C14.0738 25.3063 10.954 22.1172 7.07156 22.1172ZM10.746 30.3673H8.25016V32.8632C8.25016 33.5565 7.69553 34.1111 7.00224 34.1111C6.30895 34.1111 5.75431 33.5565 5.75431 32.8632V30.3673H3.3278C2.6345 30.3673 2.07987 29.8127 2.07987 29.1194C2.07987 28.4261 2.6345 27.8715 3.3278 27.8715H5.82364V25.3757C5.82364 24.6824 6.37827 24.1277 7.07156 24.1277C7.76486 24.1277 8.31949 24.6824 8.31949 25.3757V27.8715H10.8153C11.5086 27.8715 12.0633 28.4261 12.0633 29.1194C11.9939 29.8127 11.4393 30.3673 10.746 30.3673Z" fill="#9C0B35"/>
</svg>
