<svg width="45" height="58" viewBox="0 0 45 58" fill="none" xmlns="http://www.w3.org/2000/svg">
<g clip-path="url(#clip0_49_142)">
<path fill-rule="evenodd" clip-rule="evenodd" d="M22.4917 0C19.0622 0 15.8158 0.795626 12.9023 2.15482V9.2823C15.5993 7.30981 18.8957 6.14952 22.4917 6.14952C31.4484 6.14952 38.7403 13.4096 38.7403 22.3272C38.7403 31.2449 31.4484 38.5215 22.4917 38.5215C13.535 38.5215 6.24306 31.2449 6.24306 22.3272C6.24306 22.2278 6.24306 22.1283 6.24306 22.0455V6.92857C2.38069 10.9564 0 16.4098 0 22.4101C0 25.1948 1.03219 28.3442 2.44728 31.4604C3.89567 34.6097 5.84351 37.9248 7.92453 41.0742C12.0699 47.3729 16.8146 53.2075 19.2286 56.075C20.9434 58.1138 24.0566 58.1138 25.7547 56.075C28.1687 53.2075 32.9134 47.3729 37.0588 41.0742C39.1398 37.9248 41.0877 34.6097 42.5361 31.4604C43.9512 28.3607 44.9834 25.1948 44.9834 22.4101C45 10.0448 34.9279 0 22.4917 0Z" fill="white"/>
<path fill-rule="evenodd" clip-rule="evenodd" d="M22.4917 31.8748C27.7858 31.8748 32.081 27.5817 32.081 22.3107C32.081 17.0397 27.7692 12.7632 22.4917 12.7632C17.2142 12.7632 13.0688 16.8905 12.9023 22.0289V22.4765V22.5096C13.0189 27.6812 17.2642 31.8582 22.4917 31.8582V31.8748ZM22.4917 16.6253C25.6715 16.6253 28.2353 19.1779 28.2353 22.3273C28.2353 25.4766 25.6715 28.0293 22.4917 28.0293C19.3119 28.0293 16.7481 25.4766 16.7481 22.3273C16.7481 19.1779 19.3119 16.6253 22.4917 16.6253Z" fill="white"/>
</g>
<defs>
<clipPath id="clip0_49_142">
<rect width="45" height="57.6" fill="white"/>
</clipPath>
</defs>
</svg>
