<svg width="42" height="42" viewBox="0 0 42 42" fill="none" xmlns="http://www.w3.org/2000/svg">
<path fill-rule="evenodd" clip-rule="evenodd" d="M20.9847 3C18.6229 3 16.2842 3.46519 14.1022 4.369C11.9202 5.27281 9.93762 6.59756 8.26759 8.26759C6.59756 9.93762 5.27282 11.9202 4.369 14.1022C3.46519 16.2842 3 18.6229 3 20.9847C3 23.3465 3.46519 25.6851 4.369 27.8671C5.27282 30.0491 6.59756 32.0317 8.26759 33.7018C9.93762 35.3718 11.9202 36.6965 14.1022 37.6003C16.2842 38.5042 18.6229 38.9693 20.9847 38.9693C23.3464 38.9693 25.6851 38.5042 27.8671 37.6003C30.0491 36.6965 32.0317 35.3718 33.7018 33.7018C35.3718 32.0317 36.6965 30.0491 37.6003 27.8671C38.5042 25.6851 38.9693 23.3465 38.9693 20.9847C38.9693 18.6229 38.5042 16.2842 37.6003 14.1022C36.6965 11.9202 35.3718 9.93762 33.7018 8.26759C32.0317 6.59756 30.0491 5.27282 27.8671 4.369C25.6851 3.46519 23.3465 3 20.9847 3ZM13.3369 2.52124C15.7615 1.51692 18.3603 1 20.9847 1C23.6091 1 26.2078 1.51692 28.6325 2.52124C31.0571 3.52557 33.2602 4.99763 35.116 6.85338C36.9717 8.70913 38.4438 10.9122 39.4481 13.3369C40.4524 15.7615 40.9693 18.3603 40.9693 20.9847C40.9693 23.6091 40.4524 26.2078 39.4481 28.6325C38.4438 31.0571 36.9717 33.2602 35.116 35.116C33.2602 36.9717 31.0571 38.4438 28.6325 39.4481C26.2078 40.4524 23.6091 40.9693 20.9847 40.9693C18.3602 40.9693 15.7615 40.4524 13.3369 39.4481C10.9122 38.4438 8.70912 36.9717 6.85337 35.116C4.99763 33.2602 3.52557 31.0571 2.52124 28.6325C1.51692 26.2078 1 23.6091 1 20.9847C1 18.3602 1.51692 15.7615 2.52124 13.3369C3.52557 10.9122 4.99763 8.70912 6.85338 6.85337C8.70913 4.99762 10.9122 3.52556 13.3369 2.52124ZM13.9498 13.9493C14.3403 13.5588 14.9735 13.5588 15.364 13.9493L20.9849 19.5701L26.6057 13.9493C26.9962 13.5588 27.6294 13.5588 28.0199 13.9493C28.4104 14.3398 28.4104 14.973 28.0199 15.3635L22.3991 20.9844L28.0205 26.6057C28.411 26.9963 28.411 27.6294 28.0205 28.02C27.6299 28.4105 26.9968 28.4105 26.6062 28.02L20.9849 22.3986L15.3635 28.02C14.9729 28.4105 14.3398 28.4105 13.9493 28.02C13.5587 27.6294 13.5587 26.9963 13.9493 26.6057L19.5706 20.9844L13.9498 15.3635C13.5593 14.973 13.5593 14.3398 13.9498 13.9493Z" fill="#9C0B35"/>
<path d="M14.1022 4.369L13.9109 3.90706L14.1022 4.369ZM20.9847 3V2.5V3ZM8.26759 8.26759L7.91404 7.91403L8.26759 8.26759ZM4.369 14.1022L3.90706 13.9109L4.369 14.1022ZM3 20.9847H3.5H3ZM8.26759 33.7018L8.62114 33.3482L8.26759 33.7018ZM14.1022 37.6003L14.2936 37.1384H14.2936L14.1022 37.6003ZM33.7018 33.7018L33.3482 33.3482L33.7018 33.7018ZM37.6003 14.1022L38.0623 13.9109V13.9109L37.6003 14.1022ZM33.7018 8.26759L33.3482 8.62114L33.7018 8.26759ZM27.8671 4.369L28.0585 3.90706V3.90706L27.8671 4.369ZM13.3369 2.52124L13.5282 2.98318L13.3369 2.52124ZM28.6325 2.52124L28.4411 2.98318L28.6325 2.52124ZM35.116 6.85338L35.4695 6.49983V6.49982L35.116 6.85338ZM39.4481 28.6325L39.91 28.8238L39.4481 28.6325ZM35.116 35.116L35.4695 35.4695L35.116 35.116ZM28.6325 39.4481L28.4411 38.9862L28.6325 39.4481ZM13.3369 39.4481L13.5282 38.9862H13.5282L13.3369 39.4481ZM6.85337 35.116L6.49982 35.4695H6.49982L6.85337 35.116ZM2.52124 28.6325L2.98318 28.4411L2.52124 28.6325ZM2.52124 13.3369L2.0593 13.1455L2.52124 13.3369ZM6.85338 6.85337L7.20693 7.20693L6.85338 6.85337ZM15.364 13.9493L15.0105 14.3029V14.3029L15.364 13.9493ZM13.9498 13.9493L14.3033 14.3029L14.3033 14.3029L13.9498 13.9493ZM20.9849 19.5701L20.6313 19.9237L20.9849 20.2773L21.3384 19.9237L20.9849 19.5701ZM26.6057 13.9493L26.2521 13.5957L26.6057 13.9493ZM28.0199 13.9493L28.3735 13.5957L28.0199 13.9493ZM22.3991 20.9844L22.0455 20.6308L21.692 20.9844L22.0455 21.3379L22.3991 20.9844ZM28.0205 26.6057L27.6669 26.9593L27.6669 26.9593L28.0205 26.6057ZM28.0205 28.02L27.6669 27.6664L27.6669 27.6664L28.0205 28.02ZM26.6062 28.02L26.9598 27.6664V27.6664L26.6062 28.02ZM20.9849 22.3986L21.3384 22.045L20.9849 21.6915L20.6313 22.045L20.9849 22.3986ZM15.3635 28.02L15.0099 27.6664L15.0099 27.6664L15.3635 28.02ZM13.9493 28.02L14.3028 27.6664L14.3028 27.6664L13.9493 28.02ZM13.9493 26.6057L14.3028 26.9593H14.3028L13.9493 26.6057ZM19.5706 20.9844L19.9242 21.3379L20.2778 20.9844L19.9242 20.6308L19.5706 20.9844ZM13.9498 15.3635L14.3033 15.01H14.3033L13.9498 15.3635ZM14.2936 4.83094C16.4149 3.95225 18.6886 3.5 20.9847 3.5V2.5C18.5572 2.5 16.1536 2.97812 13.9109 3.90706L14.2936 4.83094ZM8.62114 8.62114C10.2447 6.99754 12.1722 5.70963 14.2936 4.83094L13.9109 3.90706C11.6682 4.836 9.6305 6.19757 7.91404 7.91403L8.62114 8.62114ZM4.83094 14.2936C5.70963 12.1722 6.99754 10.2447 8.62114 8.62114L7.91404 7.91403C6.19758 9.63049 4.83601 11.6682 3.90706 13.9109L4.83094 14.2936ZM3.5 20.9847C3.5 18.6885 3.95226 16.4149 4.83094 14.2936L3.90706 13.9109C2.97812 16.1536 2.5 18.5572 2.5 20.9847H3.5ZM4.83094 27.6758C3.95225 25.5544 3.5 23.2808 3.5 20.9847H2.5C2.5 23.4121 2.97812 25.8158 3.90706 28.0584L4.83094 27.6758ZM8.62114 33.3482C6.99754 31.7246 5.70963 29.7971 4.83094 27.6758L3.90706 28.0584C4.836 30.3011 6.19757 32.3388 7.91403 34.0553L8.62114 33.3482ZM14.2936 37.1384C12.1722 36.2597 10.2447 34.9718 8.62114 33.3482L7.91403 34.0553C9.63049 35.7718 11.6682 37.1333 13.9109 38.0623L14.2936 37.1384ZM20.9847 38.4693C18.6886 38.4693 16.4149 38.0171 14.2936 37.1384L13.9109 38.0623C16.1536 38.9912 18.5572 39.4693 20.9847 39.4693V38.4693ZM27.6758 37.1384C25.5544 38.0171 23.2808 38.4693 20.9847 38.4693V39.4693C23.4121 39.4693 25.8158 38.9912 28.0584 38.0623L27.6758 37.1384ZM33.3482 33.3482C31.7246 34.9718 29.7971 36.2597 27.6758 37.1384L28.0584 38.0623C30.3011 37.1333 32.3388 35.7718 34.0553 34.0553L33.3482 33.3482ZM37.1384 27.6758C36.2597 29.7971 34.9718 31.7246 33.3482 33.3482L34.0553 34.0553C35.7718 32.3389 37.1333 30.3011 38.0623 28.0585L37.1384 27.6758ZM38.4693 20.9847C38.4693 23.2808 38.0171 25.5544 37.1384 27.6758L38.0623 28.0585C38.9912 25.8158 39.4693 23.4121 39.4693 20.9847H38.4693ZM37.1384 14.2936C38.0171 16.4149 38.4693 18.6886 38.4693 20.9847H39.4693C39.4693 18.5572 38.9912 16.1536 38.0623 13.9109L37.1384 14.2936ZM33.3482 8.62114C34.9718 10.2447 36.2597 12.1722 37.1384 14.2936L38.0623 13.9109C37.1333 11.6682 35.7718 9.6305 34.0553 7.91404L33.3482 8.62114ZM27.6758 4.83094C29.7971 5.70963 31.7246 6.99754 33.3482 8.62114L34.0553 7.91404C32.3389 6.19758 30.3011 4.83601 28.0585 3.90706L27.6758 4.83094ZM20.9847 3.5C23.2808 3.5 25.5544 3.95226 27.6758 4.83094L28.0585 3.90706C25.8158 2.97812 23.4121 2.5 20.9847 2.5V3.5ZM20.9847 0.5C18.2946 0.5 15.6308 1.02985 13.1455 2.0593L13.5282 2.98318C15.8922 2.00399 18.4259 1.5 20.9847 1.5V0.5ZM28.8238 2.0593C26.3385 1.02985 23.6748 0.5 20.9847 0.5V1.5C23.5434 1.5 26.0771 2.00399 28.4411 2.98318L28.8238 2.0593ZM35.4695 6.49982C33.5673 4.59765 31.3091 3.08876 28.8238 2.0593L28.4411 2.98318C30.8051 3.96238 32.9531 5.39761 34.7624 7.20693L35.4695 6.49982ZM39.91 13.1455C38.8806 10.6602 37.3717 8.402 35.4695 6.49983L34.7624 7.20693C36.5717 9.01625 38.007 11.1642 38.9862 13.5282L39.91 13.1455ZM41.4693 20.9847C41.4693 18.2946 40.9395 15.6308 39.91 13.1455L38.9862 13.5282C39.9654 15.8922 40.4693 18.4259 40.4693 20.9847H41.4693ZM39.91 28.8238C40.9395 26.3385 41.4693 23.6748 41.4693 20.9847H40.4693C40.4693 23.5434 39.9654 26.0771 38.9862 28.4411L39.91 28.8238ZM35.4695 35.4695C37.3717 33.5674 38.8806 31.3091 39.91 28.8238L38.9862 28.4411C38.007 30.8051 36.5717 32.9531 34.7624 34.7624L35.4695 35.4695ZM28.8238 39.91C31.3091 38.8806 33.5673 37.3717 35.4695 35.4695L34.7624 34.7624C32.9531 36.5717 30.8051 38.007 28.4411 38.9862L28.8238 39.91ZM20.9847 41.4693C23.6748 41.4693 26.3385 40.9395 28.8238 39.91L28.4411 38.9862C26.0771 39.9654 23.5434 40.4693 20.9847 40.4693V41.4693ZM13.1455 39.91C15.6308 40.9395 18.2946 41.4693 20.9847 41.4693V40.4693C18.4259 40.4693 15.8922 39.9654 13.5282 38.9862L13.1455 39.91ZM6.49982 35.4695C8.402 37.3717 10.6602 38.8806 13.1455 39.91L13.5282 38.9862C11.1642 38.007 9.01625 36.5717 7.20693 34.7624L6.49982 35.4695ZM2.0593 28.8238C3.08875 31.3091 4.59764 33.5673 6.49982 35.4695L7.20693 34.7624C5.39761 32.9531 3.96238 30.8051 2.98318 28.4411L2.0593 28.8238ZM0.5 20.9847C0.5 23.6748 1.02985 26.3385 2.0593 28.8238L2.98318 28.4411C2.00399 26.0771 1.5 23.5434 1.5 20.9847H0.5ZM2.0593 13.1455C1.02985 15.6308 0.5 18.2946 0.5 20.9847H1.5C1.5 18.4259 2.00399 15.8922 2.98318 13.5282L2.0593 13.1455ZM6.49982 6.49982C4.59765 8.402 3.08876 10.6602 2.0593 13.1455L2.98318 13.5282C3.96238 11.1642 5.39761 9.01624 7.20693 7.20693L6.49982 6.49982ZM13.1455 2.0593C10.6602 3.08875 8.402 4.59764 6.49982 6.49982L7.20693 7.20693C9.01625 5.39761 11.1642 3.96238 13.5282 2.98318L13.1455 2.0593ZM15.7176 13.5957C15.1318 13.01 14.182 13.01 13.5962 13.5957L14.3033 14.3029C14.4986 14.1076 14.8152 14.1076 15.0105 14.3029L15.7176 13.5957ZM21.3384 19.2166L15.7176 13.5957L15.0105 14.3029L20.6313 19.9237L21.3384 19.2166ZM26.2521 13.5957L20.6313 19.2166L21.3384 19.9237L26.9593 14.3029L26.2521 13.5957ZM28.3735 13.5957C27.7877 13.01 26.8379 13.01 26.2521 13.5957L26.9593 14.3029C27.1545 14.1076 27.4711 14.1076 27.6664 14.3029L28.3735 13.5957ZM28.3735 15.7171C28.9593 15.1313 28.9593 14.1815 28.3735 13.5957L27.6664 14.3029C27.8616 14.4981 27.8616 14.8147 27.6664 15.01L28.3735 15.7171ZM22.7526 21.3379L28.3735 15.7171L27.6664 15.01L22.0455 20.6308L22.7526 21.3379ZM28.374 26.2522L22.7526 20.6308L22.0455 21.3379L27.6669 26.9593L28.374 26.2522ZM28.374 28.3735C28.9598 27.7877 28.9598 26.838 28.374 26.2522L27.6669 26.9593C27.8622 27.1546 27.8622 27.4711 27.6669 27.6664L28.374 28.3735ZM26.2527 28.3735C26.8385 28.9593 27.7882 28.9593 28.374 28.3735L27.6669 27.6664C27.4716 27.8617 27.1551 27.8617 26.9598 27.6664L26.2527 28.3735ZM20.6313 22.7521L26.2527 28.3735L26.9598 27.6664L21.3384 22.045L20.6313 22.7521ZM15.717 28.3735L21.3384 22.7521L20.6313 22.045L15.0099 27.6664L15.717 28.3735ZM13.5957 28.3735C14.1815 28.9593 15.1312 28.9593 15.717 28.3735L15.0099 27.6664C14.8147 27.8617 14.4981 27.8617 14.3028 27.6664L13.5957 28.3735ZM13.5957 26.2522C13.0099 26.838 13.0099 27.7877 13.5957 28.3735L14.3028 27.6664C14.1075 27.4711 14.1075 27.1546 14.3028 26.9593L13.5957 26.2522ZM19.2171 20.6308L13.5957 26.2522L14.3028 26.9593L19.9242 21.3379L19.2171 20.6308ZM13.5962 15.7171L19.2171 21.3379L19.9242 20.6308L14.3033 15.01L13.5962 15.7171ZM13.5962 13.5957C13.0105 14.1815 13.0105 15.1313 13.5962 15.7171L14.3033 15.01C14.1081 14.8147 14.1081 14.4981 14.3033 14.3029L13.5962 13.5957Z" fill="#9C0B35"/>
</svg>
